<svg width="40" height="40" viewBox="0 0 100 100" fill="none" xmlns="http://www.w3.org/2000/svg">
<path d="M37.0762 5.43872C38.7585 3.7171 40.768 2.3491 42.9865 1.41511C45.205 0.481129 47.5879 0 49.995 0C52.4021 0 54.7849 0.481129 57.0034 1.41511C59.2219 2.3491 61.2314 3.7171 62.9137 5.43872L66.8012 9.42622L72.3637 9.35747C74.7715 9.32897 77.1607 9.78221 79.3908 10.6905C81.6209 11.5988 83.6469 12.9439 85.3496 14.6466C87.0523 16.3493 88.3974 18.3753 89.3057 20.6054C90.214 22.8355 90.6672 25.2247 90.6387 27.6325L90.5762 33.195L94.5512 37.0825C96.2728 38.7648 97.6408 40.7742 98.5748 42.9928C99.5088 45.2113 99.9899 47.5941 99.9899 50.0012C99.9899 52.4083 99.5088 54.7912 98.5748 57.0097C97.6408 59.2282 96.2728 61.2377 94.5512 62.92L90.57 66.8075L90.6387 72.37C90.6672 74.7778 90.214 77.167 89.3057 79.3971C88.3974 81.6272 87.0523 83.6532 85.3496 85.3559C83.6469 87.0586 81.6209 88.4036 79.3908 89.3119C77.1607 90.2202 74.7715 90.6735 72.3637 90.645L66.8012 90.5825L62.9137 94.5575C61.2314 96.2791 59.2219 97.6471 57.0034 98.5811C54.7849 99.5151 52.4021 99.9962 49.995 99.9962C47.5879 99.9962 45.205 99.5151 42.9865 98.5811C40.768 97.6471 38.7585 96.2791 37.0762 94.5575L33.1887 90.5762L27.6262 90.645C25.2184 90.6735 22.8292 90.2202 20.5991 89.3119C18.369 88.4036 16.343 87.0586 14.6403 85.3559C12.9376 83.6532 11.5926 81.6272 10.6843 79.3971C9.77596 77.167 9.32272 74.7778 9.35122 72.37L9.41372 66.8075L5.43872 62.92C3.7171 61.2377 2.3491 59.2282 1.41511 57.0097C0.481129 54.7912 0 52.4083 0 50.0012C0 47.5941 0.481129 45.2113 1.41511 42.9928C2.3491 40.7742 3.7171 38.7648 5.43872 37.0825L9.41997 33.195L9.35122 27.6325C9.32272 25.2247 9.77596 22.8355 10.6843 20.6054C11.5926 18.3753 12.9376 16.3493 14.6403 14.6466C16.343 12.9439 18.369 11.5988 20.5991 10.6905C22.8292 9.78221 25.2184 9.32897 27.6262 9.35747L33.1887 9.41997L37.0762 5.43872ZM43.7575 68.7512C43.7575 69.572 43.9191 70.3847 44.2332 71.143C44.5473 71.9013 45.0077 72.5903 45.5881 73.1706C46.1684 73.751 46.8574 74.2114 47.6157 74.5255C48.374 74.8396 49.1867 75.0012 50.0075 75.0012C50.8282 75.0012 51.641 74.8396 52.3992 74.5255C53.1575 74.2114 53.8465 73.751 54.4269 73.1706C55.0073 72.5903 55.4676 71.9013 55.7817 71.143C56.0958 70.3847 56.2575 69.572 56.2575 68.7512C56.2575 67.0936 55.599 65.5039 54.4269 64.3318C53.2548 63.1597 51.6651 62.5012 50.0075 62.5012C48.3499 62.5012 46.7602 63.1597 45.5881 64.3318C44.4159 65.5039 43.7575 67.0936 43.7575 68.7512ZM53.77 56.0825C54.02 52.745 55.0075 50.9887 59.0575 48.2075C63.27 45.2387 65.62 41.395 65.62 35.795C65.62 27.5137 59.87 21.8762 51.4825 21.8762C45.1075 21.8762 40.2825 24.9512 38.3575 29.9387C37.7741 31.3009 37.4804 32.7695 37.495 34.2512C37.495 36.7075 38.7637 38.2512 40.9012 38.2512C42.6012 38.2512 43.745 37.3325 44.4262 35.0637C45.4137 31.3637 47.7075 29.345 51.1387 29.345C54.9512 29.345 57.5762 32.1325 57.5762 36.12C57.5762 39.6387 56.2762 41.6512 52.4387 44.4012C48.57 47.1075 46.6512 50.1137 46.6512 54.6512V55.345C46.6512 58.02 47.9512 60.0012 50.3075 60.0012C52.4075 60.0012 53.4575 58.5012 53.77 56.0825Z" fill="#26acd9"/>
</svg>
