<svg width="40" height="40" viewBox="0 0 100 100" fill="none" xmlns="http://www.w3.org/2000/svg">
<path d="M52.7937 1.72479C52.5339 1.20641 52.135 0.770539 51.6416 0.465933C51.1483 0.161326 50.5798 0 50 0C49.4202 0 48.8517 0.161326 48.3584 0.465933C47.865 0.770539 47.4661 1.20641 47.2062 1.72479L44.9375 6.24979H15.625C13.1386 6.24979 10.754 7.23751 8.99587 8.99566C7.23772 10.7538 6.25 13.1384 6.25 15.6248V62.4998H93.75V15.6248C93.75 13.1384 92.7623 10.7538 91.0041 8.99566C89.246 7.23751 86.8614 6.24979 84.375 6.24979H55.0563L52.7937 1.72479Z" fill="#26acd9"/>
<path fill-rule="evenodd" clip-rule="evenodd" d="M3.125 68.7498C2.2962 68.7498 1.50134 69.079 0.915291 69.6651C0.32924 70.2511 0 71.046 0 71.8748C0 72.7036 0.32924 73.4985 0.915291 74.0845C1.50134 74.6706 2.2962 74.9998 3.125 74.9998H21L15.7188 96.1185C15.5395 96.9149 15.6791 97.7498 16.1074 98.4446C16.5358 99.1394 17.2191 99.6391 18.0111 99.8367C18.8031 100.034 19.6409 99.9141 20.3455 99.5019C21.0501 99.0897 21.5654 98.4183 21.7812 97.631L24.3125 87.4998H75.6875L78.2188 97.631C78.4346 98.4183 78.9499 99.0897 79.6545 99.5019C80.3591 99.9141 81.1969 100.034 81.9889 99.8367C82.7809 99.6391 83.4642 99.1394 83.8926 98.4446C84.3209 97.7498 84.4604 96.9149 84.2812 96.1185L79 74.9998H96.875C97.7038 74.9998 98.4987 74.6706 99.0847 74.0845C99.6708 73.4985 100 72.7036 100 71.8748C100 71.046 99.6708 70.2511 99.0847 69.6651C98.4987 69.079 97.7038 68.7498 96.875 68.7498H3.125ZM25.875 81.2498L27.4375 74.9998H72.5625L74.125 81.2498H25.875Z" fill="#26acd9"/>
</svg>
