<svg width="40" height="40" viewBox="0 0 100 100" fill="none" xmlns="http://www.w3.org/2000/svg">
<g clip-path="url(#clip0_418_79)">
<path d="M53.2188 6.36875C52.1477 6.28967 51.074 6.25006 50 6.25V0C51.2284 0.000598922 52.4563 0.0464634 53.6812 0.1375L53.2188 6.36875ZM65.7438 9.18125C63.7403 8.40815 61.6827 7.78355 59.5875 7.3125L60.9563 1.2125C63.35 1.75 65.7062 2.4625 67.9937 3.35L65.7438 9.18125ZM74.3062 13.6187C73.4127 13.0228 72.4975 12.4599 71.5625 11.9313L74.6437 6.49375C76.7807 7.7046 78.8257 9.07077 80.7625 10.5812L76.9188 15.5125C76.0714 14.8514 75.2 14.2218 74.3062 13.625V13.6187ZM85.7687 24.8063C84.5325 23.0498 83.1684 21.387 81.6875 19.8313L86.2125 15.5188C87.9 17.3 89.4625 19.2062 90.8813 21.2062L85.7687 24.8063ZM90.4188 33.2563C90.0085 32.2654 89.5624 31.2897 89.0813 30.3313L94.6625 27.5187C95.7662 29.713 96.7063 31.9859 97.475 34.3188L91.5375 36.275C91.2016 35.2554 90.8285 34.2485 90.4188 33.2563ZM93.7312 48.925C93.6807 46.7771 93.4718 44.6359 93.1063 42.5187L99.2625 41.4562C99.6812 43.8687 99.925 46.3187 99.9875 48.7687L93.7375 48.925H93.7312ZM92.9125 58.5375C93.1188 57.475 93.2875 56.4187 93.4187 55.35L99.625 56.1188C99.3248 58.5572 98.8443 60.9701 98.1875 63.3375L92.1625 61.6687C92.45 60.6375 92.7 59.5938 92.9125 58.5375ZM86.9625 73.4062C88.1125 71.5937 89.125 69.6937 90 67.7312L95.7125 70.2625C94.7125 72.5125 93.5562 74.675 92.2437 76.75L86.9625 73.4062ZM80.9375 80.9375C81.7 80.175 82.4313 79.3875 83.125 78.575L87.8625 82.6563C87.0602 83.5865 86.2243 84.4871 85.3562 85.3562L80.9375 80.9375Z" fill="#26acd9"/>
<path d="M50 6.25C42.8055 6.25052 35.7221 8.02529 29.3774 11.4171C23.0326 14.8089 17.6222 19.7131 13.6253 25.6953C9.62855 31.6775 7.16871 38.553 6.46371 45.7129C5.75871 52.8728 6.83031 60.096 9.5836 66.7428C12.3369 73.3897 16.6869 79.2549 22.2483 83.8191C27.8097 88.3832 34.4108 91.5055 41.4671 92.9092C48.5233 94.3129 55.8168 93.9548 62.7016 91.8666C69.5864 89.7784 75.8499 86.0245 80.9375 80.9375L85.3562 85.3562C79.5421 91.1736 72.3828 95.4671 64.5127 97.8562C56.6427 100.245 48.3048 100.656 40.2379 99.053C32.171 97.4496 24.6241 93.8812 18.2659 88.6639C11.9077 83.4467 6.93459 76.7417 3.78708 69.1431C0.639577 61.5444 -0.585093 53.2867 0.221581 45.1017C1.02825 36.9166 3.84136 29.0569 8.41166 22.2189C12.982 15.3809 19.1683 9.77569 26.4227 5.90002C33.677 2.02434 41.7753 -0.00217958 50 1.75911e-06V6.25Z" fill="#26acd9"/>
<path d="M46.875 18.75C47.7038 18.75 48.4987 19.0792 49.0847 19.6653C49.6708 20.2513 50 21.0462 50 21.875V54.4375L70.3 66.0375C70.9987 66.459 71.5048 67.1371 71.7102 67.9268C71.9156 68.7165 71.8039 69.5553 71.3991 70.2637C70.9942 70.9722 70.3283 71.4943 69.5437 71.7183C68.759 71.9423 67.9179 71.8505 67.2 71.4625L45.325 58.9625C44.8467 58.6893 44.4491 58.2945 44.1725 57.8182C43.8959 57.3418 43.7502 56.8008 43.75 56.25V21.875C43.75 21.0462 44.0792 20.2513 44.6653 19.6653C45.2513 19.0792 46.0462 18.75 46.875 18.75Z" fill="#26acd9"/>
</g>
<defs>
<clipPath id="clip0_418_79">
<rect width="100" height="100" fill="white"/>
</clipPath>
</defs>
</svg>
